<svg width="25" height="25" viewBox="0 0 25 25" fill="none" xmlns="http://www.w3.org/2000/svg">
<g id="Group 272">
<g id="Group 247">
<circle id="Ellipse 105" cx="12.5" cy="12.5" r="12.5" fill="#171516"/>
</g>
<g id="icons8-javascript 1">
<path id="Vector" d="M4.625 20.375V4.625H20.375V20.375H4.625Z" fill="#FFD600"/>
<path id="Vector_2" d="M14.9227 16.4143C15.2254 16.9061 15.5544 17.3773 16.2514 17.3773C16.8368 17.3773 17.1439 17.0863 17.1439 16.6838C17.1439 16.2021 16.8263 16.0311 16.1823 15.7506L15.8292 15.6001C14.8103 15.1679 14.1326 14.6263 14.1326 13.4822C14.1326 12.4278 14.9398 11.6254 16.2011 11.6254C17.0993 11.6254 17.7446 11.9365 18.2101 12.7511L17.1102 13.4542C16.8683 13.0219 16.6066 12.8518 16.2011 12.8518C15.7872 12.8518 15.5251 13.1129 15.5251 13.4542C15.5251 13.8759 15.7876 14.0466 16.3936 14.3078L16.7466 14.4583C17.9476 14.9697 18.6248 15.4921 18.6248 16.6663C18.6248 17.9316 17.6256 18.625 16.2842 18.625C14.9721 18.625 14.2271 17.9666 13.8123 17.1515L14.9227 16.4143ZM9.85382 16.4502C10.0752 16.8466 10.4116 17.1515 10.8955 17.1515C11.3584 17.1515 11.6248 16.9686 11.6248 16.2577V11.625H13.083V16.4817C13.083 17.9548 12.2286 18.625 10.9808 18.625C9.85338 18.625 9.03963 17.8611 8.70801 17.1515L9.85382 16.4502Z" fill="#000001"/>
</g>
</g>
</svg>
