<svg width="25" height="25" viewBox="0 0 25 25" fill="none" xmlns="http://www.w3.org/2000/svg">
<g id="Group 252">
<circle id="Ellipse 108" cx="12.5" cy="12.5" r="12.5" fill="#171516"/>
<path id="Vector" fill-rule="evenodd" clip-rule="evenodd" d="M6.50417 7.10695C7.05507 7.55477 7.26174 7.5206 8.29626 7.45154L18.049 6.86562C18.2558 6.86562 18.0838 6.65916 18.0148 6.62486L16.3951 5.45331C16.0848 5.21223 15.6713 4.93615 14.8788 5.00522L5.43523 5.69436C5.09082 5.72852 5.02203 5.90082 5.15918 6.03891L6.50417 7.10695ZM7.08971 9.38101V19.6479C7.08971 20.1997 7.3653 20.4061 7.98558 20.372L18.7038 19.7515C19.3244 19.7173 19.3936 19.3378 19.3936 18.8896V8.69155C19.3936 8.24405 19.2215 8.00272 18.8416 8.03717L7.64092 8.69155C7.22756 8.72631 7.08967 8.93319 7.08967 9.38101H7.08971ZM17.6707 9.93174C17.7395 10.2421 17.6707 10.5522 17.3599 10.5871L16.8435 10.6901V18.2698C16.3951 18.5109 15.9817 18.6487 15.6371 18.6487C15.0855 18.6487 14.9473 18.4763 14.5341 17.9598L11.1561 12.654V17.7875L12.225 18.0289C12.225 18.0289 12.225 18.6487 11.3626 18.6487L8.98515 18.7867C8.91608 18.6487 8.98515 18.3045 9.22631 18.2355L9.84673 18.0635V11.276L8.98532 11.2069C8.91622 10.8965 9.08829 10.449 9.57114 10.4142L12.1216 10.2422L15.6371 15.6171V10.8623L14.7408 10.7594C14.672 10.38 14.9473 10.1045 15.292 10.0703L17.6707 9.93174ZM4.64233 4.76417L14.4652 4.04041C15.6714 3.9369 15.9818 4.00625 16.74 4.55726L19.8755 6.76225C20.3929 7.14143 20.5654 7.24466 20.5654 7.658V19.7515C20.5654 20.5094 20.2894 20.9576 19.3246 21.0262L7.91732 21.7154C7.19306 21.75 6.84837 21.6467 6.46908 21.164L4.16 18.1666C3.74628 17.6148 3.57422 17.202 3.57422 16.7191V5.9696C3.57422 5.3498 3.85026 4.83278 4.64233 4.76417Z" fill="white"/>
</g>
</svg>
