<svg width="25" height="25" viewBox="0 0 25 25" fill="none" xmlns="http://www.w3.org/2000/svg">
<g id="Group 274">
<circle id="Ellipse 107" cx="12.5" cy="12.5" r="12.5" fill="#171516"/>
<g id="icons8-figma 1">
<path id="Vector" d="M13.833 9.08333H10.4997C8.88884 9.08333 7.58301 7.7775 7.58301 6.16667C7.58301 4.55583 8.88884 3.25 10.4997 3.25H13.833V9.08333Z" fill="#E64A19"/>
<path id="Vector_2" d="M13.4163 14.9167H10.4997C8.88884 14.9167 7.58301 13.6109 7.58301 12C7.58301 10.3892 8.88884 9.08337 10.4997 9.08337H13.4163V14.9167Z" fill="#7C4DFF"/>
<path id="Vector_3" d="M10.4997 20.75C8.88884 20.75 7.58301 19.4441 7.58301 17.8333C7.58301 16.2225 8.88884 14.9166 10.4997 14.9166H13.4163V17.8333C13.4163 19.4441 12.1105 20.75 10.4997 20.75Z" fill="#66BB6A"/>
<path id="Vector_4" d="M16.3337 9.08333H13.417V3.25H16.3337C17.9445 3.25 19.2503 4.55583 19.2503 6.16667C19.2503 7.7775 17.9445 9.08333 16.3337 9.08333Z" fill="#FF7043"/>
<path id="Vector_5" d="M16.3337 14.9167C17.9445 14.9167 19.2503 13.6109 19.2503 12C19.2503 10.3892 17.9445 9.08337 16.3337 9.08337C14.7228 9.08337 13.417 10.3892 13.417 12C13.417 13.6109 14.7228 14.9167 16.3337 14.9167Z" fill="#29B6F6"/>
</g>
</g>
</svg>
