<svg width="25" height="25" viewBox="0 0 25 25" fill="none" xmlns="http://www.w3.org/2000/svg">
<circle cx="12.5" cy="12.5" r="12.5" fill="#171516"/>
<path d="M17.1247 4.66671C17.1247 3.65425 16.3038 2.83337 15.2913 2.83337C14.2789 2.83337 13.458 3.65425 13.458 4.66671C13.458 5.24146 13.458 9.13133 13.458 9.70837C13.458 10.7208 14.2789 11.5417 15.2913 11.5417C16.3038 11.5417 17.1247 10.7208 17.1247 9.70837C17.1247 9.13133 17.1247 5.24146 17.1247 4.66671Z" fill="#33D375"/>
<path d="M21.7087 9.70833C21.7087 10.7208 20.8878 11.5417 19.8753 11.5417C19.3276 11.5417 18.042 11.5417 18.042 11.5417C18.042 11.5417 18.042 10.1731 18.042 9.70833C18.042 8.69587 18.8629 7.875 19.8753 7.875C20.8878 7.875 21.7087 8.69587 21.7087 9.70833Z" fill="#33D375"/>
<path d="M5.66634 7.41663C4.65388 7.41663 3.83301 8.2375 3.83301 9.24996C3.83301 10.2624 4.65388 11.0833 5.66634 11.0833C6.24109 11.0833 10.131 11.0833 10.708 11.0833C11.7205 11.0833 12.5413 10.2624 12.5413 9.24996C12.5413 8.2375 11.7205 7.41663 10.708 7.41663C10.131 7.41663 6.24109 7.41663 5.66634 7.41663Z" fill="#40C4FF"/>
<path d="M10.7083 2.83337C11.7208 2.83337 12.5417 3.65425 12.5417 4.66671C12.5417 5.21442 12.5417 6.50004 12.5417 6.50004C12.5417 6.50004 11.1731 6.50004 10.7083 6.50004C9.69587 6.50004 8.875 5.67917 8.875 4.66671C8.875 3.65425 9.69587 2.83337 10.7083 2.83337Z" fill="#40C4FF"/>
<path d="M8.41699 18.8777C8.41699 19.8888 9.23787 20.7083 10.2503 20.7083C11.2628 20.7083 12.0837 19.8888 12.0837 18.8777C12.0837 18.3039 12.0837 14.4195 12.0837 13.8434C12.0837 12.8323 11.2628 12.0128 10.2503 12.0128C9.23787 12.0128 8.41699 12.8323 8.41699 13.8434C8.41699 14.4195 8.41699 18.3039 8.41699 18.8777Z" fill="#E91E63"/>
<path d="M3.83301 13.8434C3.83301 12.8323 4.65388 12.0128 5.66634 12.0128C6.21405 12.0128 7.49967 12.0128 7.49967 12.0128C7.49967 12.0128 7.49967 13.3791 7.49967 13.8434C7.49967 14.8545 6.6788 15.674 5.66634 15.674C4.65388 15.674 3.83301 14.8545 3.83301 13.8434Z" fill="#E91E63"/>
<path d="M19.875 16.125C20.8875 16.125 21.7083 15.3042 21.7083 14.2917C21.7083 13.2792 20.8875 12.4584 19.875 12.4584C19.3002 12.4584 15.4104 12.4584 14.8333 12.4584C13.8209 12.4584 13 13.2792 13 14.2917C13 15.3042 13.8209 16.125 14.8333 16.125C15.4099 16.125 19.3002 16.125 19.875 16.125Z" fill="#FFC107"/>
<path d="M14.8333 20.7083C13.8209 20.7083 13 19.8874 13 18.875C13 18.3272 13 17.0416 13 17.0416C13 17.0416 14.3686 17.0416 14.8333 17.0416C15.8458 17.0416 16.6667 17.8625 16.6667 18.875C16.6667 19.8874 15.8458 20.7083 14.8333 20.7083Z" fill="#FFC107"/>
</svg>
