<svg width="25" height="25" viewBox="0 0 25 25" fill="none" xmlns="http://www.w3.org/2000/svg">
<g id="Group 249">
<circle id="Ellipse 110" cx="12.5" cy="12.5" r="12.5" fill="#171516"/>
<g id="typescriptlang-icon 1" clip-path="url(#clip0_209_425)">
<path id="Vector" d="M5 12.4998V19.9998H20.0005V4.99933H5V12.4998ZM17.0884 11.9021C17.4692 11.9973 17.7598 12.1665 18.0266 12.4426C18.1648 12.5903 18.3695 12.8593 18.3861 12.9235C18.3908 12.9423 17.7385 13.3806 17.3431 13.626C17.3291 13.6353 17.2716 13.5737 17.2072 13.4783C17.0143 13.1971 16.812 13.0759 16.5024 13.0546C16.0477 13.0236 15.7524 13.2617 15.7571 13.6592C15.7571 13.776 15.7735 13.8449 15.8213 13.9405C15.9214 14.1477 16.1073 14.2714 16.6904 14.5241C17.7643 14.9858 18.2237 15.2905 18.5091 15.7241C18.8279 16.2074 18.8996 16.9789 18.683 17.5527C18.4449 18.1766 17.8545 18.6003 17.0237 18.741C16.7666 18.7862 16.157 18.7792 15.8809 18.7292C15.2785 18.6221 14.7071 18.3245 14.3546 17.934C14.2163 17.7817 13.9475 17.3839 13.9641 17.3551C13.9712 17.3457 14.0333 17.3075 14.1024 17.267L14.6595 16.9459L15.0908 16.6958L15.1812 16.8294C15.3073 17.0223 15.5837 17.2864 15.7503 17.3746C16.2289 17.627 16.8861 17.5911 17.2098 17.3007C17.348 17.1746 17.405 17.0436 17.405 16.8507C17.405 16.6768 17.3839 16.6007 17.2932 16.4699C17.1765 16.3035 16.9384 16.1628 16.262 15.8699C15.488 15.5366 15.1548 15.3294 14.8501 15.0008C14.6738 14.8103 14.5072 14.5056 14.438 14.2508C14.3809 14.0389 14.3666 13.5078 14.4118 13.2936C14.5712 12.5436 15.1355 12.0245 15.95 11.8698C16.2144 11.8199 16.8289 11.8389 17.0881 11.9031L17.0884 11.9021ZM13.5669 12.5279L13.5716 13.142H11.6192V18.6896H10.2383V13.142H8.28594V12.5396L8.30234 11.9209C8.30938 11.9115 9.49766 11.9068 10.9381 11.9092L13.5596 11.9162L13.5669 12.5279Z" fill="#007ACC"/>
</g>
</g>
<defs>
<clipPath id="clip0_209_425">
<rect width="15" height="15" fill="white" transform="translate(5 5)"/>
</clipPath>
</defs>
</svg>
