<svg width="20" height="20" viewBox="0 0 20 20" fill="none" xmlns="http://www.w3.org/2000/svg">
<path d="M10.0003 1.66699C5.39824 1.66699 1.66699 5.39824 1.66699 10.0003C1.66699 14.6024 5.39824 18.3337 10.0003 18.3337C14.6024 18.3337 18.3337 14.6024 18.3337 10.0003C18.3337 5.39824 14.6024 1.66699 10.0003 1.66699Z" fill="#A4AAAE"/>
<path d="M13.1382 12.1955L10.9429 10.0003C10.9429 10.0003 13.0362 7.90776 13.1382 7.8051C13.3988 7.54511 13.3988 7.12314 13.1382 6.86248C12.8782 6.60183 12.4562 6.60183 12.1955 6.86248L10.0003 9.05771C10.0003 9.05771 7.90776 6.96448 7.8051 6.86248C7.54511 6.60183 7.12314 6.60183 6.86248 6.86248C6.60183 7.12247 6.60183 7.54445 6.86248 7.8051L9.05771 10.0003C9.05771 10.0003 6.96448 12.0929 6.86248 12.1955C6.60183 12.4555 6.60183 12.8775 6.86248 13.1382C7.12247 13.3988 7.54445 13.3988 7.8051 13.1382L10.0003 10.9429C10.0003 10.9429 12.0929 13.0362 12.1955 13.1382C12.4555 13.3988 12.8775 13.3988 13.1382 13.1382C13.3988 12.8782 13.3988 12.4562 13.1382 12.1955Z" fill="white"/>
</svg>
