<svg width="25" height="25" viewBox="0 0 25 25" fill="none" xmlns="http://www.w3.org/2000/svg">
<g id="next-js 1">
<path id="Vector" d="M11.6825 0.0194777C11.6287 0.02436 11.4579 0.0414482 11.3041 0.0536541C7.75706 0.373447 4.43463 2.28732 2.33034 5.22893C1.15858 6.86451 0.409141 8.7198 0.125966 10.6849C0.0258777 11.3709 0.0136719 11.5735 0.0136719 12.5036C0.0136719 13.4337 0.0258777 13.6363 0.125966 14.3223C0.80461 19.0118 4.14169 22.9518 8.66761 24.4116C9.47808 24.6728 10.3325 24.851 11.3041 24.9585C11.6825 25 13.318 25 13.6964 24.9585C15.3735 24.7729 16.7943 24.3579 18.1955 23.6427C18.4103 23.5328 18.4518 23.5035 18.4225 23.4791C18.403 23.4645 17.4876 22.2365 16.389 20.7523L14.3922 18.0548L11.89 14.3516C10.5131 12.3156 9.38043 10.6508 9.37067 10.6508C9.3609 10.6483 9.35114 12.2937 9.34626 14.3028C9.33893 17.8205 9.33649 17.9621 9.29255 18.0451C9.22908 18.1647 9.18026 18.2135 9.07773 18.2672C8.99961 18.3063 8.93126 18.3136 8.56264 18.3136H8.14032L8.02803 18.2428C7.95479 18.1964 7.90109 18.1354 7.86447 18.0646L7.8132 17.9547L7.81809 13.0602L7.82541 8.16321L7.90109 8.06801C7.94014 8.01674 8.02314 7.95083 8.08173 7.9191C8.18182 7.87027 8.22088 7.86539 8.6432 7.86539C9.1412 7.86539 9.2242 7.88492 9.35358 8.02651C9.3902 8.06557 10.745 10.1064 12.366 12.5646C13.9869 15.0229 16.2035 18.3795 17.2923 20.0273L19.2696 23.0226L19.3697 22.9567C20.2558 22.3806 21.1932 21.5603 21.9354 20.7059C23.5148 18.8921 24.5328 16.6804 24.8745 14.3223C24.9746 13.6363 24.9868 13.4337 24.9868 12.5036C24.9868 11.5735 24.9746 11.3709 24.8745 10.6849C24.1959 5.99546 20.8588 2.05541 16.3329 0.595593C15.5346 0.33683 14.6851 0.158624 13.733 0.0512129C13.4987 0.0268012 11.8851 -5.1645e-05 11.6825 0.0194777V0.0194777ZM16.7943 7.57245C16.9114 7.63104 17.0066 7.74333 17.0408 7.86051C17.0603 7.92398 17.0652 9.28127 17.0603 12.3401L17.053 16.7293L16.2792 15.5429L15.5029 14.3565V11.1659C15.5029 9.10306 15.5126 7.94351 15.5273 7.88736C15.5664 7.75066 15.6518 7.64324 15.769 7.57977C15.8691 7.52851 15.9057 7.52363 16.2889 7.52363C16.6502 7.52363 16.7137 7.52851 16.7943 7.57245V7.57245Z" fill="#171516"/>
<path id="Vector_2" d="M19.1477 23.0764C19.0622 23.1301 19.0354 23.1667 19.1111 23.1252C19.1648 23.0934 19.2527 23.0275 19.238 23.0251C19.2307 23.0251 19.1892 23.0495 19.1477 23.0764ZM18.9792 23.1862C18.9353 23.2204 18.9353 23.2228 18.989 23.196C19.0183 23.1813 19.0427 23.1642 19.0427 23.1594C19.0427 23.1398 19.0305 23.1447 18.9792 23.1862ZM18.8572 23.2594C18.8132 23.2936 18.8132 23.2961 18.867 23.2692C18.8962 23.2546 18.9207 23.2375 18.9207 23.2326C18.9207 23.2131 18.9085 23.2179 18.8572 23.2594ZM18.7351 23.3327C18.6912 23.3669 18.6912 23.3693 18.7449 23.3424C18.7742 23.3278 18.7986 23.3107 18.7986 23.3058C18.7986 23.2863 18.7864 23.2912 18.7351 23.3327ZM18.5496 23.4303C18.4568 23.4792 18.4617 23.4987 18.5545 23.4523C18.596 23.4303 18.6277 23.4084 18.6277 23.4035C18.6277 23.3864 18.6253 23.3888 18.5496 23.4303Z" fill="#171516"/>
</g>
</svg>
