<svg width="25" height="25" viewBox="0 0 25 25" fill="none" xmlns="http://www.w3.org/2000/svg">
<g id="Group 246">
<circle id="Ellipse 104" cx="12.5" cy="12.5" r="12.5" fill="#171516"/>
<g id="python_4 1" clip-path="url(#clip0_209_455)">
<g id="Group">
<path id="Vector" d="M12.4332 3.04822C7.60898 3.04822 7.90957 5.14119 7.90957 5.14119L7.91328 7.30837H12.5148V7.95779H6.0875C6.0875 7.95779 3 7.60896 3 12.474C3 17.339 5.69414 17.1683 5.69414 17.1683H7.30098V14.9121C7.30098 14.9121 7.21563 12.2179 9.95059 12.2179H14.515C14.515 12.2179 17.0793 12.2588 17.0793 9.73904V5.57166C17.083 5.57166 17.4727 3.04822 12.4332 3.04822ZM9.89492 4.50662C10.3514 4.50662 10.7225 4.87771 10.7225 5.33416C10.7225 5.7906 10.3514 6.16169 9.89492 6.16169C9.43848 6.16169 9.06738 5.7906 9.06738 5.33416C9.06367 4.87771 9.43477 4.50662 9.89492 4.50662Z" fill="url(#paint0_linear_209_455)"/>
<path id="Vector_2" d="M12.5671 21.9518C17.3913 21.9518 17.0907 19.8589 17.0907 19.8589L17.087 17.6917H12.4854V17.0423H18.9165C18.9165 17.0423 22.004 17.3911 22.004 12.5261C22.004 7.66103 19.3098 7.83173 19.3098 7.83173H17.703V10.088C17.703 10.088 17.7884 12.7821 15.0534 12.7821H10.4889C10.4889 12.7821 7.92469 12.7413 7.92469 15.261V19.4284C7.91726 19.4284 7.52761 21.9518 12.5671 21.9518ZM15.1054 20.4934C14.6489 20.4934 14.2778 20.1224 14.2778 19.6659C14.2778 19.2095 14.6489 18.8384 15.1054 18.8384C15.5618 18.8384 15.9329 19.2095 15.9329 19.6659C15.9366 20.1224 15.5655 20.4934 15.1054 20.4934Z" fill="url(#paint1_linear_209_455)"/>
</g>
</g>
</g>
<defs>
<linearGradient id="paint0_linear_209_455" x1="4.78112" y1="4.7951" x2="14.1972" y2="14.1172" gradientUnits="userSpaceOnUse">
<stop stop-color="#387EB8"/>
<stop offset="1" stop-color="#366994"/>
</linearGradient>
<linearGradient id="paint1_linear_209_455" x1="10.5603" y1="10.7826" x2="20.6716" y2="20.3411" gradientUnits="userSpaceOnUse">
<stop stop-color="#FFE052"/>
<stop offset="1" stop-color="#FFC331"/>
</linearGradient>
<clipPath id="clip0_209_455">
<rect width="19" height="19" fill="white" transform="translate(3 3)"/>
</clipPath>
</defs>
</svg>
