<svg width="25" height="25" viewBox="0 0 25 25" fill="none" xmlns="http://www.w3.org/2000/svg">
<g id="Group 248">
<circle id="Ellipse 109" cx="12.5" cy="12.5" r="12.5" fill="#171516"/>
<g id="react-2 1">
<g id="Group">
<path id="Vector" d="M22 12.8269C22 11.5682 20.4238 10.3754 18.0071 9.6357C18.5648 7.17259 18.317 5.21295 17.2248 4.58556C16.9731 4.43839 16.6788 4.36868 16.3573 4.36868V5.23232C16.5355 5.23232 16.6788 5.26717 16.7988 5.33301C17.3255 5.63509 17.554 6.78531 17.3759 8.26473C17.3333 8.62877 17.2636 9.01218 17.1784 9.40333C16.4193 9.21744 15.5905 9.07414 14.7191 8.98119C14.1963 8.26473 13.6541 7.61409 13.108 7.04479C14.3706 5.87133 15.5556 5.22844 16.3612 5.22844V4.36481C15.2962 4.36481 13.902 5.12388 12.4923 6.44063C11.0826 5.13162 9.68834 4.3803 8.62332 4.3803V5.24393C9.42499 5.24393 10.6139 5.88295 11.8765 7.04866C11.3343 7.61797 10.7921 8.26473 10.277 8.98119C9.40175 9.07414 8.57297 9.21744 7.8139 9.4072C7.72483 9.01992 7.65899 8.64426 7.61251 8.28409C7.43049 6.80468 7.65512 5.65445 8.17795 5.3485C8.29413 5.27879 8.44517 5.24781 8.62332 5.24781V4.38417C8.298 4.38417 8.00367 4.45388 7.74806 4.60105C6.6598 5.22844 6.41582 7.18421 6.97737 9.63957C4.56849 10.3832 3 11.5721 3 12.8269C3 14.0856 4.57623 15.2784 6.99287 16.0181C6.43518 18.4812 6.68304 20.4408 7.77517 21.0682C8.02691 21.2154 8.32124 21.2851 8.64656 21.2851C9.71158 21.2851 11.1058 20.526 12.5155 19.2093C13.9252 20.5183 15.3194 21.2696 16.3844 21.2696C16.7097 21.2696 17.0041 21.1999 17.2597 21.0527C18.3479 20.4253 18.5919 18.4696 18.0304 16.0142C20.4315 15.2745 22 14.0817 22 12.8269V12.8269ZM16.9576 10.2437C16.8143 10.7433 16.6362 11.2584 16.4348 11.7735C16.276 11.4637 16.1095 11.1538 15.9274 10.844C15.7493 10.5342 15.5595 10.2321 15.3698 9.93778C15.9197 10.0191 16.4503 10.1198 16.9576 10.2437ZM15.1839 14.3683C14.8818 14.8911 14.572 15.3868 14.2505 15.8477C13.6735 15.898 13.0887 15.9251 12.5 15.9251C11.9152 15.9251 11.3304 15.898 10.7572 15.8516C10.4358 15.3907 10.1221 14.8988 9.82002 14.3799C9.52568 13.8726 9.25846 13.3575 9.01447 12.8385C9.25459 12.3196 9.52568 11.8006 9.81614 11.2933C10.1182 10.7704 10.428 10.2747 10.7495 9.81385C11.3265 9.7635 11.9113 9.73639 12.5 9.73639C13.0848 9.73639 13.6696 9.7635 14.2428 9.80998C14.5642 10.2708 14.8779 10.7627 15.18 11.2816C15.4743 11.789 15.7415 12.3041 15.9855 12.823C15.7415 13.342 15.4743 13.8609 15.1839 14.3683ZM16.4348 13.8648C16.6439 14.3838 16.8221 14.9027 16.9692 15.4062C16.4619 15.5301 15.9274 15.6347 15.3736 15.716C15.5634 15.4178 15.7532 15.1119 15.9313 14.7982C16.1095 14.4883 16.276 14.1746 16.4348 13.8648ZM12.5077 17.9971C12.1476 17.6253 11.7874 17.2109 11.4311 16.7578C11.7797 16.7733 12.136 16.7849 12.4961 16.7849C12.8602 16.7849 13.2203 16.7772 13.5728 16.7578C13.2242 17.2109 12.864 17.6253 12.5077 17.9971ZM9.62638 15.716C9.07644 15.6347 8.54586 15.534 8.03852 15.4101C8.18182 14.9105 8.35997 14.3954 8.56135 13.8803C8.72014 14.1901 8.88667 14.4999 9.06869 14.8098C9.25071 15.1196 9.43661 15.4217 9.62638 15.716ZM12.4884 7.65669C12.8486 8.02848 13.2087 8.44287 13.565 8.89599C13.2165 8.8805 12.8602 8.86888 12.5 8.86888C12.136 8.86888 11.7758 8.87663 11.4234 8.89599C11.7719 8.44287 12.1321 8.02848 12.4884 7.65669ZM9.6225 9.93778C9.43274 10.236 9.24297 10.5419 9.06482 10.8556C8.88667 11.1655 8.72014 11.4753 8.56135 11.7851C8.35222 11.2662 8.17407 10.7472 8.02691 10.2437C8.53424 10.1237 9.06869 10.0191 9.6225 9.93778V9.93778ZM6.11761 14.7865C4.74664 14.2017 3.85976 13.4349 3.85976 12.8269C3.85976 12.2189 4.74664 11.4482 6.11761 10.8673C6.45067 10.724 6.81472 10.5962 7.19038 10.4761C7.41113 11.2352 7.70159 12.0252 8.06176 12.8346C7.70546 13.6402 7.41888 14.4264 7.202 15.1816C6.81859 15.0615 6.45455 14.9298 6.11761 14.7865ZM8.20118 20.3208C7.67448 20.0187 7.44598 18.8685 7.62413 17.3891C7.66673 17.025 7.73645 16.6416 7.82165 16.2505C8.58072 16.4364 9.4095 16.5796 10.2809 16.6726C10.8037 17.3891 11.3459 18.0397 11.892 18.609C10.6294 19.7825 9.44435 20.4253 8.63881 20.4253C8.46453 20.4215 8.31737 20.3866 8.20118 20.3208V20.3208ZM17.3875 17.3697C17.5695 18.8491 17.3449 19.9993 16.8221 20.3053C16.7059 20.375 16.5548 20.406 16.3767 20.406C15.575 20.406 14.3861 19.767 13.1235 18.6013C13.6657 18.0319 14.2079 17.3852 14.723 16.6687C15.5982 16.5758 16.427 16.4325 17.1861 16.2427C17.2752 16.6339 17.3449 17.0095 17.3875 17.3697V17.3697ZM18.8785 14.7865C18.5455 14.9298 18.1814 15.0576 17.8057 15.1777C17.585 14.4186 17.2945 13.6286 16.9344 12.8191C17.2907 12.0136 17.5773 11.2274 17.7941 10.4722C18.1775 10.5923 18.5416 10.724 18.8824 10.8673C20.2534 11.452 21.1402 12.2189 21.1402 12.8269C21.1364 13.4349 20.2495 14.2056 18.8785 14.7865V14.7865Z" fill="#61DAFB"/>
<path id="Vector_2" d="M12.4955 14.5967C13.473 14.5967 14.2654 13.8043 14.2654 12.8268C14.2654 11.8493 13.473 11.0569 12.4955 11.0569C11.518 11.0569 10.7256 11.8493 10.7256 12.8268C10.7256 13.8043 11.518 14.5967 12.4955 14.5967Z" fill="#61DAFB"/>
</g>
</g>
</g>
</svg>
